<?xml version="1.0" encoding="UTF-8"?>
<svg version="1.1" xmlns="http://www.w3.org/2000/svg" width="120" height="120">
<path d="M0 0 C0.92554687 0.40089844 1.85109375 0.80179687 2.8046875 1.21484375 C17.60901998 8.44925552 28.59335643 21.49753858 34 37 C38.09115879 50.61750325 37.78689342 66.97495461 32 80 C31.59910156 80.92554687 31.19820313 81.85109375 30.78515625 82.8046875 C23.55074448 97.60901998 10.50246142 108.59335643 -5 114 C-21.33540938 118.90770976 -38.58375699 116.84339408 -53.6875 109.3125 C-68.48452172 100.74013516 -78.17334289 87.48561159 -83.14453125 71.265625 C-86.94564988 55.0114286 -84.0381238 37.9218054 -75.7578125 23.62890625 C-66.61899295 9.9612939 -53.33481957 0.14561464 -37.22045898 -3.62280273 C-25.00382375 -5.69808601 -11.3407875 -5.038595 0 0 Z " fill="#FEFEFE" transform="translate(84,4)"/>
<path d="M0 0 C0.09991855 4.37412668 0.17195484 8.74762437 0.21972656 13.12255859 C0.23966981 14.60640048 0.2668349 16.09016555 0.30175781 17.57373047 C0.58040874 29.72782815 -0.55207685 39.14386778 -9.203125 48.3125 C-14.73420353 53.50690419 -20.22173285 56.30791005 -27.8125 56.125 C-28.78832031 56.10695312 -29.76414062 56.08890625 -30.76953125 56.0703125 C-31.87361328 56.03550781 -31.87361328 56.03550781 -33 56 C-35.22807592 51.93133962 -36.5640345 48.62123428 -37 44 C-37.07605469 43.21882813 -37.15210938 42.43765625 -37.23046875 41.6328125 C-37.77919871 31.39974034 -34.19566643 21.64747861 -27.64453125 13.76953125 C-20.03035055 5.57660047 -11.5579944 -0.21737604 0 0 Z " fill="#A46563" transform="translate(90,37)"/>
<path d="M0 0 C10.16557813 1.07849096 17.07722981 4.52362109 25 11 C24.08841108 15.40256015 22.08586349 19.21297719 20.15625 23.24609375 C17.97993745 28.42954086 17.84379923 33.31086337 17.875 38.875 C17.87113281 39.55691406 17.86726563 40.23882812 17.86328125 40.94140625 C17.87175581 45.39055248 18.27781612 49.60958055 19 54 C12.69080311 52.22553837 7.99620779 47.84991922 4.30395508 42.57861328 C-0.72541337 33.53775333 -0.72170153 25.77817819 -0.375 15.75 C-0.34482359 14.21489682 -0.31746148 12.67973563 -0.29296875 11.14453125 C-0.22766935 7.42845751 -0.1245872 3.71461514 0 0 Z " fill="#A46563" transform="translate(30,37)"/>
<path d="M0 0 C3.41842463 1.93215305 6.02753283 3.9131265 8.875 6.625 C8.875 7.285 8.875 7.945 8.875 8.625 C7.265625 10.0625 7.265625 10.0625 5.125 11.625 C4.42890625 12.140625 3.7328125 12.65625 3.015625 13.1875 C1.02398379 14.52495249 -0.95527923 15.60855423 -3.125 16.625 C-3.59550781 16.21507813 -4.06601562 15.80515625 -4.55078125 15.3828125 C-5.17339844 14.84398437 -5.79601563 14.30515625 -6.4375 13.75 C-7.05238281 13.21632813 -7.66726562 12.68265625 -8.30078125 12.1328125 C-10.25998212 10.4609553 -10.25998212 10.4609553 -13.125 8.625 C-10.83540421 3.1813692 -6.04455253 -0.7253463 0 0 Z " fill="#A66967" transform="translate(62.125,27.375)"/>
</svg>
